#N canvas -1403 198 878 498 10;
#X floatatom 379 306 5 1 4 0 - #0-set-seq-length #0-seq-length;
#X obj 206 159 i;
#X obj 230 159 + 1;
#X obj 223 123 bng 15 250 50 0 empty empty empty 17 7 0 10 -262144
-1 -1;
#X floatatom 489 306 5 0 0 0 - #0-seq-num -;
#X msg 254 137 0;
#X obj 206 212 list prepend \$0;
#X floatatom 527 373 5 0 0 0 - #0-x-disp -;
#X floatatom 563 373 5 0 0 0 - #0-y-disp -;
#X obj 80 391 r \$0-x-out;
#X obj 157 393 r \$0-y-out;
#X msg 125 250 \; \$1-\$2-set bang;
#X obj 720 186 loadbang;
#X obj 304 162 sel 1;
#X obj 264 161 >= 4;
#X obj 348 201 + 1;
#X obj 295 106 r \$0-seq-length;
#X obj 720 236 s \$0-set-seq-length;
#X msg 720 208 4;
#X obj 348 223 s \$0-seq-num;
#X obj 30 428 i;
#X text 500 373 out;
#X obj 30 27 t b b;
#X obj 30 -11 inlet;
#X obj 30 396 t b b;
#X obj 74 428 i;
#X obj 30 462 outlet;
#X obj 74 462 outlet;
#X obj 138 455 s \$0-x-disp;
#X obj 229 455 s \$0-y-disp;
#X obj 295 130 t b f;
#X text 465 304 pos;
#X text 307 304 seq length;
#X obj 57 66 i;
#X obj 81 66 + 1;
#X obj 78 38 bng 15 250 50 0 empty empty empty 17 7 0 10 -262144 -1
-1;
#X msg 105 44 0;
#X obj 155 69 sel 1;
#X obj 146 37 t b f;
#X obj 57 91 sel 0;
#X obj 146 13 r \$0-step-length;
#X msg 667 239 1;
#X obj 85 136 bng 15 250 50 0 empty empty empty 17 7 0 10 -262144 -1
-1;
#X obj 492 14 inlet;
#X obj 492 66 s \$0-reset;
#X obj 248 46 r \$0-reset;
#X obj 448 37 bng 15 250 50 0 empty empty empty 17 7 0 10 -262144 -1
-1;
#X floatatom 154 188 5 0 0 0 - - -;
#X obj 492 39 route reset param;
#X obj 541 89 route length;
#X obj 541 114 route step seq;
#X obj 581 136 s \$0-set-seq-length;
#X obj 541 157 s \$0-set-step-length;
#X msg 232 250 \; \$1-\$2-step-length bang;
#X obj 115 68 >= 4;
#X obj 667 267 s \$0-step-length;
#X floatatom 563 306 5 0 0 0 - #0-step-num -;
#X text 531 304 step;
#X obj 127 107 + 1;
#X floatatom 42 136 5 0 0 0 - - -;
#X obj 127 129 s \$0-step-num;
#X obj 303 326 cnv 15 72 42 empty empty empty 20 12 0 14 -128992 -66577
0;
#X obj 377 326 cnv 15 72 42 empty empty empty 20 12 0 14 -128992 -66577
0;
#X obj 451 326 cnv 15 72 42 empty empty empty 20 12 0 14 -128992 -66577
0;
#X obj 525 326 cnv 15 72 42 empty empty empty 20 12 0 14 -128992 -66577
0;
#X floatatom 379 328 5 -4 4 0 - #0-1-set #0-x-out;
#X floatatom 415 328 5 -4 4 0 - #0-1-set #0-y-out;
#X floatatom 453 328 5 -4 4 0 - #0-2-set #0-x-out;
#X floatatom 489 328 5 -4 4 0 - #0-2-set #0-y-out;
#X floatatom 527 328 5 -4 4 0 - #0-3-set #0-x-out;
#X floatatom 563 328 5 -4 4 0 - #0-3-set #0-y-out;
#X floatatom 305 328 5 -4 4 0 - #0-0-set #0-x-out;
#X floatatom 341 328 5 -4 4 0 - #0-0-set #0-y-out;
#X floatatom 341 350 5 1 4 0 - #0-0-step-length #0-step-length;
#X text 310 350 len;
#X floatatom 415 350 5 1 4 0 - #0-1-step-length #0-step-length;
#X text 385 349 len;
#X floatatom 489 350 5 1 4 0 - #0-2-step-length #0-step-length;
#X text 458 350 len;
#X floatatom 563 350 5 1 4 0 - #0-3-step-length #0-step-length;
#X text 533 349 len;
#X connect 1 0 2 0;
#X connect 1 0 6 0;
#X connect 1 0 15 0;
#X connect 1 0 47 0;
#X connect 2 0 1 1;
#X connect 2 0 14 0;
#X connect 3 0 1 0;
#X connect 5 0 1 1;
#X connect 6 0 11 0;
#X connect 6 0 53 0;
#X connect 9 0 20 1;
#X connect 10 0 25 1;
#X connect 12 0 18 0;
#X connect 12 0 41 0;
#X connect 13 0 5 0;
#X connect 14 0 13 0;
#X connect 15 0 19 0;
#X connect 16 0 30 0;
#X connect 18 0 17 0;
#X connect 20 0 26 0;
#X connect 20 0 28 0;
#X connect 22 0 24 0;
#X connect 22 1 33 0;
#X connect 23 0 22 0;
#X connect 24 0 20 0;
#X connect 24 1 25 0;
#X connect 25 0 27 0;
#X connect 25 0 29 0;
#X connect 30 0 14 0;
#X connect 30 1 14 1;
#X connect 33 0 34 0;
#X connect 33 0 39 0;
#X connect 33 0 58 0;
#X connect 33 0 59 0;
#X connect 34 0 33 1;
#X connect 34 0 54 0;
#X connect 35 0 33 0;
#X connect 36 0 33 1;
#X connect 37 0 36 0;
#X connect 38 0 54 0;
#X connect 38 1 54 1;
#X connect 39 0 1 0;
#X connect 39 0 42 0;
#X connect 40 0 38 0;
#X connect 41 0 55 0;
#X connect 43 0 48 0;
#X connect 45 0 5 0;
#X connect 45 0 36 0;
#X connect 46 0 44 0;
#X connect 48 0 44 0;
#X connect 48 1 49 0;
#X connect 49 0 50 0;
#X connect 50 0 52 0;
#X connect 50 1 51 0;
#X connect 54 0 37 0;
#X connect 58 0 60 0;
#X coords 0 -1 1 1 300 95 2 300 300;
