#N canvas 0 25 1024 542 10;
#X floatatom 105 97 5 0 127 0 - #0-1-1-in #0-1-1-out;
#X floatatom 143 97 5 0 127 0 - #0-1-2-in #0-1-2-out;
#X floatatom 181 97 5 0 127 0 - #0-1-3-in #0-1-3-out;
#X floatatom 219 97 5 0 127 0 - #0-1-4-in #0-1-4-out;
#X floatatom 105 119 5 0 127 0 - #0-2-1-in #0-2-1-out;
#X floatatom 143 119 5 0 127 0 - #0-2-2-in #0-2-2-out;
#X floatatom 181 119 5 0 127 0 - #0-2-3-in #0-2-3-out;
#X floatatom 219 119 5 0 127 0 - #0-2-4-in #0-2-4-out;
#X floatatom 105 141 5 0 127 0 - #0-3-1-in #0-3-1-out;
#X floatatom 143 141 5 0 127 0 - #0-3-2-in #0-3-2-out;
#X floatatom 181 141 5 0 127 0 - #0-3-3-in #0-3-3-out;
#X floatatom 219 141 5 0 127 0 - #0-3-4-in #0-3-4-out;
#X floatatom 105 163 5 0 127 0 - #0-4-1-in #0-4-1-out;
#X floatatom 143 163 5 0 127 0 - #0-4-2-in #0-4-2-out;
#X floatatom 181 163 5 0 127 0 - #0-4-3-in #0-4-3-out;
#X floatatom 219 163 5 0 127 0 - #0-4-4-in #0-4-4-out;
#X obj 460 133 i;
#X obj 484 133 + 1;
#X obj 460 92 bng 15 250 50 0 empty empty empty 17 7 0 10 -262144 -1
-1;
#X floatatom 484 178 5 0 0 0 - - -;
#X obj 508 133 sel 4;
#X msg 508 152 0;
#X connect 16 0 17 0;
#X connect 17 0 19 0;
#X connect 17 0 16 1;
#X connect 17 0 20 0;
#X connect 18 0 16 0;
#X connect 20 0 21 0;
#X connect 21 0 16 1;
