#N canvas 0 25 1022 510 10;
#X floatatom 91 69 5 0 127 0 - #0-1-1-in #0-1-1-out;
#X floatatom 91 91 5 0 127 0 - #0-1-2-in #0-1-2-out;
#X floatatom 91 113 5 0 127 0 - #0-1-3-in #0-1-3-out;
#X floatatom 128 69 5 0 127 0 - #0-2-1-in #0-2-1-out;
#X floatatom 128 91 5 0 127 0 - #0-2-2-in #0-2-2-out;
#X floatatom 128 113 5 0 127 0 - #0-2-3-in #0-2-3-out;
#X floatatom 167 69 5 0 127 0 - #0-3-1-in #0-3-1-out;
#X floatatom 167 91 5 0 127 0 - #0-3-2-in #0-3-2-out;
#X floatatom 167 113 5 0 127 0 - #0-3-3-in #0-3-3-out;
#X obj 263 83 i;
#X obj 287 83 + 1;
#X obj 263 42 bng 15 250 50 0 empty empty empty 17 7 0 10 -262144 -1
-1;
#X floatatom 263 128 5 0 0 0 - - -;
#X obj 311 83 sel 4;
#X msg 311 102 0;
#X obj 363 82 i;
#X obj 387 82 + 1;
#X obj 363 41 bng 15 250 50 0 empty empty empty 17 7 0 10 -262144 -1
-1;
#X floatatom 363 123 5 0 0 0 - - -;
#X obj 411 82 sel 4;
#X msg 411 101 0;
#X obj 263 205 pack f f;
#X obj 363 149 t b f;
#X obj 263 231 list prepend \$0;
#X obj 263 255 list append bang;
#N canvas 109 70 760 413 gridvals 0;
#X obj 34 53 r \$0-1-1-out;
#X obj 34 76 list prepend 1 1;
#X obj 135 53 r \$0-1-2-out;
#X obj 236 53 r \$0-1-3-out;
#X obj 337 53 r \$0-1-4-out;
#X obj 135 76 list prepend 1 2;
#X obj 236 76 list prepend 1 3;
#X obj 337 76 list prepend 1 4;
#X obj 34 105 t a;
#X obj 81 166 t a;
#X obj 81 114 r \$0-2-1-out;
#X obj 182 114 r \$0-2-2-out;
#X obj 283 114 r \$0-2-3-out;
#X obj 384 114 r \$0-2-4-out;
#X obj 81 137 list prepend 2 1;
#X obj 182 137 list prepend 2 2;
#X obj 283 137 list prepend 2 3;
#X obj 384 137 list prepend 2 4;
#X obj 127 231 t a;
#X obj 127 179 r \$0-3-1-out;
#X obj 228 179 r \$0-3-2-out;
#X obj 329 179 r \$0-3-3-out;
#X obj 430 179 r \$0-3-4-out;
#X obj 127 202 list prepend 3 1;
#X obj 228 202 list prepend 3 2;
#X obj 329 202 list prepend 3 3;
#X obj 430 202 list prepend 3 4;
#X obj 172 297 t a;
#X obj 172 245 r \$0-4-1-out;
#X obj 273 245 r \$0-4-2-out;
#X obj 374 245 r \$0-4-3-out;
#X obj 475 245 r \$0-4-4-out;
#X obj 172 268 list prepend 4 1;
#X obj 273 268 list prepend 4 2;
#X obj 374 268 list prepend 4 3;
#X obj 475 268 list prepend 4 4;
#X obj 63 360 outlet;
#X connect 0 0 1 0;
#X connect 1 0 8 0;
#X connect 2 0 5 0;
#X connect 3 0 6 0;
#X connect 4 0 7 0;
#X connect 5 0 8 0;
#X connect 6 0 8 0;
#X connect 7 0 8 0;
#X connect 8 0 36 0;
#X connect 9 0 36 0;
#X connect 10 0 14 0;
#X connect 11 0 15 0;
#X connect 12 0 16 0;
#X connect 13 0 17 0;
#X connect 14 0 9 0;
#X connect 15 0 9 0;
#X connect 16 0 9 0;
#X connect 17 0 9 0;
#X connect 18 0 36 0;
#X connect 19 0 23 0;
#X connect 20 0 24 0;
#X connect 21 0 25 0;
#X connect 22 0 26 0;
#X connect 23 0 18 0;
#X connect 24 0 18 0;
#X connect 25 0 18 0;
#X connect 26 0 18 0;
#X connect 27 0 36 0;
#X connect 28 0 32 0;
#X connect 29 0 33 0;
#X connect 30 0 34 0;
#X connect 31 0 35 0;
#X connect 32 0 27 0;
#X connect 33 0 27 0;
#X connect 34 0 27 0;
#X connect 35 0 27 0;
#X restore 64 178 pd gridvals;
#X obj 104 374 print;
#X msg 263 301 \; \$1-\$2-\$3-in \$4;
#X obj 537 37 bng 15 250 50 0 empty empty empty 17 7 0 10 -262144 -1
-1;
#X floatatom 524 116 5 1 4 0 - - -;
#X floatatom 586 119 5 1 4 0 - - -;
#X obj 530 242 pack f f;
#X obj 530 268 list prepend \$0;
#X obj 530 292 list append bang;
#X msg 530 338 \; \$1-\$2-\$3-in \$4;
#X obj 526 160 +;
#X obj 593 163 +;
#X obj 535 68 t b b b;
#X msg 459 216 set \$1;
#X msg 676 205 set \$1;
#X obj 519 190 wrapval 4;
#X obj 64 224 unpack f f f;
#X obj 64 250 change;
#X obj 64 293 i;
#X obj 64 272 bng 15 250 50 0 empty empty empty 17 7 0 10 -262144 -1
-1;
#X obj 111 250 change;
#X obj 111 293 i;
#X obj 111 272 bng 15 250 50 0 empty empty empty 17 7 0 10 -262144
-1 -1;
#X msg 114 332 x \$1;
#X msg 62 332 y \$1;
#X floatatom 53 69 5 0 127 0 - #0-0-1-in #0-0-1-out;
#X floatatom 53 91 5 0 127 0 - #0-0-2-in #0-0-2-out;
#X floatatom 53 113 5 0 127 0 - #0-0-3-in #0-0-3-out;
#X floatatom 91 47 5 0 127 0 - #0-1-0-in #0-1-0-out;
#X floatatom 128 47 5 0 127 0 - #0-2-0-in #0-2-0-out;
#X floatatom 167 47 5 0 127 0 - #0-3-0-in #0-3-0-out;
#X floatatom 53 47 5 0 127 0 - #0-0-0-in #0-0-0-out;
#X obj 602 197 wrapval 4;
#X obj 658 72 diffseq;
#X obj 194 329 i;
#X obj 218 329 + 1;
#X obj 193 168 bng 15 250 50 0 empty empty empty 17 7 0 10 -262144
-1 -1;
#X floatatom 194 358 5 0 0 0 - - -;
#X msg 194 234 16;
#X obj 194 258 until;
#X msg 214 296 0;
#X obj 193 204 t b b;
#X obj 220 404 % 4;
#X obj 192 404 / 4;
#X obj 192 382 t f f f;
#X obj 192 427 pack f f f;
#X connect 9 0 10 0;
#X connect 9 0 12 0;
#X connect 10 0 9 1;
#X connect 10 0 13 0;
#X connect 11 0 9 0;
#X connect 12 0 21 0;
#X connect 13 0 14 0;
#X connect 14 0 9 1;
#X connect 15 0 16 0;
#X connect 15 0 18 0;
#X connect 16 0 15 1;
#X connect 16 0 19 0;
#X connect 17 0 15 0;
#X connect 18 0 22 0;
#X connect 19 0 20 0;
#X connect 20 0 15 1;
#X connect 21 0 23 0;
#X connect 22 0 21 0;
#X connect 22 1 21 1;
#X connect 23 0 24 0;
#X connect 24 0 27 0;
#X connect 25 0 41 0;
#X connect 28 0 37 0;
#X connect 29 0 35 0;
#X connect 30 0 36 0;
#X connect 31 0 32 0;
#X connect 32 0 33 0;
#X connect 33 0 34 0;
#X connect 35 0 40 0;
#X connect 36 0 57 0;
#X connect 37 0 29 0;
#X connect 37 1 30 0;
#X connect 37 2 58 0;
#X connect 38 0 29 0;
#X connect 39 0 30 0;
#X connect 40 0 38 0;
#X connect 40 0 31 0;
#X connect 41 0 42 0;
#X connect 41 1 45 0;
#X connect 41 2 43 1;
#X connect 41 2 46 1;
#X connect 42 0 44 0;
#X connect 43 0 49 0;
#X connect 44 0 43 0;
#X connect 45 0 47 0;
#X connect 46 0 48 0;
#X connect 47 0 46 0;
#X connect 48 0 26 0;
#X connect 49 0 26 0;
#X connect 57 0 39 0;
#X connect 57 0 31 1;
#X connect 58 0 35 1;
#X connect 58 1 36 1;
#X connect 59 0 60 0;
#X connect 59 0 62 0;
#X connect 60 0 59 1;
#X connect 61 0 66 0;
#X connect 62 0 69 0;
#X connect 63 0 64 0;
#X connect 64 0 59 0;
#X connect 65 0 59 1;
#X connect 66 0 63 0;
#X connect 66 1 65 0;
#X connect 67 0 70 1;
#X connect 68 0 70 0;
#X connect 69 0 68 0;
#X connect 69 1 67 0;
#X connect 69 2 70 2;
