#N canvas 288 47 473 361 10;
#X floatatom 20 25 5 0 127 0 - #0-1-1-in #0-1-1-out;
#X floatatom 58 25 5 0 127 0 - #0-1-2-in #0-1-2-out;
#X floatatom 96 25 5 0 127 0 - #0-1-3-in #0-1-3-out;
#X floatatom 134 25 5 0 127 0 - #0-1-4-in #0-1-4-out;
#X floatatom 20 47 5 0 127 0 - #0-2-1-in #0-2-1-out;
#X floatatom 58 47 5 0 127 0 - #0-2-2-in #0-2-2-out;
#X floatatom 96 47 5 0 127 0 - #0-2-3-in #0-2-3-out;
#X floatatom 134 47 5 0 127 0 - #0-2-4-in #0-2-4-out;
#X floatatom 20 69 5 0 127 0 - #0-3-1-in #0-3-1-out;
#X floatatom 58 69 5 0 127 0 - #0-3-2-in #0-3-2-out;
#X floatatom 96 69 5 0 127 0 - #0-3-3-in #0-3-3-out;
#X floatatom 134 69 5 0 127 0 - #0-3-4-in #0-3-4-out;
#X floatatom 20 91 5 0 127 0 - #0-4-1-in #0-4-1-out;
#X floatatom 58 91 5 0 127 0 - #0-4-2-in #0-4-2-out;
#X floatatom 96 91 5 0 127 0 - #0-4-3-in #0-4-3-out;
#X floatatom 134 91 5 0 127 0 - #0-4-4-in #0-4-4-out;
#X obj 208 66 i;
#X obj 232 66 + 1;
#X obj 208 25 bng 15 250 50 0 empty empty empty 17 7 0 10 -262144 -1
-1;
#X floatatom 232 111 5 0 0 0 - - -;
#X obj 256 66 sel 4;
#X msg 256 85 0;
#X obj 308 65 i;
#X obj 332 65 + 1;
#X obj 308 24 bng 15 250 50 0 empty empty empty 17 7 0 10 -262144 -1
-1;
#X floatatom 332 110 5 0 0 0 - - -;
#X obj 356 65 sel 4;
#X msg 356 84 0;
#X obj 232 188 pack f f;
#X obj 332 136 t b f;
#X obj 232 214 list prepend \$0;
#X obj 232 238 list append bang;
#N canvas 109 70 760 413 gridvals 0;
#X obj 34 53 r \$0-1-1-out;
#X obj 34 76 list prepend 1 1;
#X obj 135 53 r \$0-1-2-out;
#X obj 236 53 r \$0-1-3-out;
#X obj 337 53 r \$0-1-4-out;
#X obj 135 76 list prepend 1 2;
#X obj 236 76 list prepend 1 3;
#X obj 337 76 list prepend 1 4;
#X obj 34 105 t a;
#X obj 81 166 t a;
#X obj 81 114 r \$0-2-1-out;
#X obj 182 114 r \$0-2-2-out;
#X obj 283 114 r \$0-2-3-out;
#X obj 384 114 r \$0-2-4-out;
#X obj 81 137 list prepend 2 1;
#X obj 182 137 list prepend 2 2;
#X obj 283 137 list prepend 2 3;
#X obj 384 137 list prepend 2 4;
#X obj 127 231 t a;
#X obj 127 179 r \$0-3-1-out;
#X obj 228 179 r \$0-3-2-out;
#X obj 329 179 r \$0-3-3-out;
#X obj 430 179 r \$0-3-4-out;
#X obj 127 202 list prepend 3 1;
#X obj 228 202 list prepend 3 2;
#X obj 329 202 list prepend 3 3;
#X obj 430 202 list prepend 3 4;
#X obj 172 297 t a;
#X obj 172 245 r \$0-4-1-out;
#X obj 273 245 r \$0-4-2-out;
#X obj 374 245 r \$0-4-3-out;
#X obj 475 245 r \$0-4-4-out;
#X obj 172 268 list prepend 4 1;
#X obj 273 268 list prepend 4 2;
#X obj 374 268 list prepend 4 3;
#X obj 475 268 list prepend 4 4;
#X obj 63 360 outlet;
#X connect 0 0 1 0;
#X connect 1 0 8 0;
#X connect 2 0 5 0;
#X connect 3 0 6 0;
#X connect 4 0 7 0;
#X connect 5 0 8 0;
#X connect 6 0 8 0;
#X connect 7 0 8 0;
#X connect 8 0 36 0;
#X connect 9 0 36 0;
#X connect 10 0 14 0;
#X connect 11 0 15 0;
#X connect 12 0 16 0;
#X connect 13 0 17 0;
#X connect 14 0 9 0;
#X connect 15 0 9 0;
#X connect 16 0 9 0;
#X connect 17 0 9 0;
#X connect 18 0 36 0;
#X connect 19 0 23 0;
#X connect 20 0 24 0;
#X connect 21 0 25 0;
#X connect 22 0 26 0;
#X connect 23 0 18 0;
#X connect 24 0 18 0;
#X connect 25 0 18 0;
#X connect 26 0 18 0;
#X connect 27 0 36 0;
#X connect 28 0 32 0;
#X connect 29 0 33 0;
#X connect 30 0 34 0;
#X connect 31 0 35 0;
#X connect 32 0 27 0;
#X connect 33 0 27 0;
#X connect 34 0 27 0;
#X connect 35 0 27 0;
#X restore 92 128 pd gridvals;
#X obj 92 156 print;
#X msg 232 284 \; \$1-\$2-\$3-in \$4;
#X connect 16 0 17 0;
#X connect 17 0 19 0;
#X connect 17 0 16 1;
#X connect 17 0 20 0;
#X connect 18 0 16 0;
#X connect 19 0 28 0;
#X connect 20 0 21 0;
#X connect 21 0 16 1;
#X connect 22 0 23 0;
#X connect 23 0 25 0;
#X connect 23 0 22 1;
#X connect 23 0 26 0;
#X connect 24 0 22 0;
#X connect 25 0 29 0;
#X connect 26 0 27 0;
#X connect 27 0 22 1;
#X connect 28 0 30 0;
#X connect 29 0 28 0;
#X connect 29 1 28 1;
#X connect 30 0 31 0;
#X connect 31 0 34 0;
#X connect 32 0 33 0;
