#N canvas -1338 192 1312 557 10;
#X floatatom 149 116 5 0 127 0 - #0-1-1-in #0-1-1-out;
#X floatatom 149 138 5 0 127 0 - #0-1-2-in #0-1-2-out;
#X floatatom 149 160 5 0 127 0 - #0-1-3-in #0-1-3-out;
#X floatatom 186 116 5 0 127 0 - #0-2-1-in #0-2-1-out;
#X floatatom 186 138 5 0 127 0 - #0-2-2-in #0-2-2-out;
#X floatatom 186 160 5 0 127 0 - #0-2-3-in #0-2-3-out;
#X floatatom 225 116 5 0 127 0 - #0-3-1-in #0-3-1-out;
#X floatatom 225 138 5 0 127 0 - #0-3-2-in #0-3-2-out;
#X floatatom 225 160 5 0 127 0 - #0-3-3-in #0-3-3-out;
#X obj 305 85 i;
#X obj 329 85 + 1;
#X obj 305 44 bng 15 250 50 0 empty empty empty 17 7 0 10 -262144 -1
-1;
#X floatatom 305 130 5 0 0 0 - - -;
#X obj 353 85 sel 4;
#X msg 353 104 0;
#X obj 399 84 i;
#X obj 423 84 + 1;
#X obj 399 43 bng 15 250 50 0 empty empty empty 17 7 0 10 -262144 -1
-1;
#X floatatom 399 125 5 0 0 0 - - -;
#X obj 447 84 sel 4;
#X msg 447 103 0;
#X obj 305 182 pack f f;
#X obj 399 151 t b f;
#X obj 305 208 list prepend \$0;
#X obj 305 232 list append bang;
#N canvas -1108 394 760 413 gridvals 0;
#X obj 34 105 t a;
#X obj 81 166 t a;
#X obj 127 231 t a;
#X obj 172 297 t a;
#X obj 63 360 outlet;
#X obj 34 53 r \$0-0-0-out;
#X obj 34 76 list prepend 0 0;
#X obj 135 53 r \$0-0-1-out;
#X obj 135 76 list prepend 0 1;
#X obj 236 53 r \$0-0-2-out;
#X obj 236 76 list prepend 0 2;
#X obj 337 53 r \$0-0-3-out;
#X obj 337 76 list prepend 0 3;
#X obj 81 114 r \$0-1-0-out;
#X obj 81 137 list prepend 1 0;
#X obj 182 114 r \$0-1-1-out;
#X obj 182 137 list prepend 1 1;
#X obj 283 114 r \$0-1-2-out;
#X obj 283 137 list prepend 1 1;
#X obj 384 114 r \$0-1-3-out;
#X obj 384 137 list prepend 1 3;
#X obj 127 179 r \$0-2-0-out;
#X obj 127 202 list prepend 2 0;
#X obj 228 180 r \$0-2-1-out;
#X obj 228 202 list prepend 2 1;
#X obj 329 179 r \$0-2-2-out;
#X obj 329 202 list prepend 2 2;
#X obj 430 179 r \$0-2-3-out;
#X obj 430 202 list prepend 2 3;
#X obj 172 245 r \$0-3-1-out;
#X obj 172 268 list prepend 3 1;
#X obj 273 245 r \$0-3-2-out;
#X obj 273 268 list prepend 3 2;
#X obj 374 245 r \$0-3-3-out;
#X obj 374 268 list prepend 3 3;
#X obj 475 245 r \$0-3-3-out;
#X obj 475 268 list prepend 3 3;
#X connect 0 0 4 0;
#X connect 1 0 4 0;
#X connect 2 0 4 0;
#X connect 3 0 4 0;
#X connect 5 0 6 0;
#X connect 6 0 0 0;
#X connect 7 0 8 0;
#X connect 8 0 0 0;
#X connect 9 0 10 0;
#X connect 10 0 0 0;
#X connect 11 0 12 0;
#X connect 12 0 0 0;
#X connect 13 0 14 0;
#X connect 14 0 1 0;
#X connect 15 0 16 0;
#X connect 16 0 1 0;
#X connect 17 0 18 0;
#X connect 18 0 1 0;
#X connect 19 0 20 0;
#X connect 20 0 1 0;
#X connect 21 0 22 0;
#X connect 22 0 2 0;
#X connect 23 0 24 0;
#X connect 24 0 2 0;
#X connect 25 0 26 0;
#X connect 26 0 2 0;
#X connect 27 0 28 0;
#X connect 28 0 2 0;
#X connect 29 0 30 0;
#X connect 30 0 3 0;
#X connect 31 0 32 0;
#X connect 32 0 3 0;
#X connect 33 0 34 0;
#X connect 34 0 3 0;
#X connect 35 0 36 0;
#X connect 36 0 3 0;
#X restore 125 215 pd gridvals;
#X obj 125 355 print;
#X msg 305 278 \; \$1-\$2-\$3-in \$4;
#X obj 646 81 bng 15 250 50 0 empty empty empty 17 7 0 10 -262144 -1
-1;
#X floatatom 633 160 5 1 4 0 - - -;
#X floatatom 695 163 5 1 4 0 - - -;
#X obj 639 286 pack f f;
#X obj 639 312 list prepend \$0;
#X obj 639 336 list append bang;
#X msg 639 364 \; \$1-\$2-\$3-in \$4;
#X obj 635 204 +;
#X obj 702 207 +;
#X obj 644 112 t b b b;
#X msg 568 260 set \$1;
#X msg 785 249 set \$1;
#X obj 628 234 wrapval 4;
#X obj 125 239 unpack f f f;
#X obj 125 265 change;
#X obj 125 308 i;
#X obj 125 287 bng 15 250 50 0 empty empty empty 17 7 0 10 -262144
-1 -1;
#X obj 172 265 change;
#X obj 172 308 i;
#X obj 172 287 bng 15 250 50 0 empty empty empty 17 7 0 10 -262144
-1 -1;
#X msg 172 330 x \$1;
#X msg 125 330 y \$1;
#X floatatom 111 116 5 0 127 0 - #0-0-1-in #0-0-1-out;
#X floatatom 111 138 5 0 127 0 - #0-0-2-in #0-0-2-out;
#X floatatom 111 160 5 0 127 0 - #0-0-3-in #0-0-3-out;
#X floatatom 149 94 5 0 127 0 - #0-1-0-in #0-1-0-out;
#X floatatom 186 94 5 0 127 0 - #0-2-0-in #0-2-0-out;
#X floatatom 225 94 5 0 127 0 - #0-3-0-in #0-3-0-out;
#X floatatom 111 94 5 0 127 0 - #0-0-0-in #0-0-0-out;
#X obj 711 241 wrapval 4;
#X obj 767 116 diffseq;
#X obj -30 140 i;
#X obj -6 140 + 1;
#X floatatom -30 164 5 0 0 0 - - -;
#X msg -30 96 16;
#X obj -30 118 until;
#X msg 11 118 0;
#X obj -30 73 t b b;
#X obj -30 208 / 4;
#X obj -30 186 t f f f;
#X obj -30 251 pack f f f;
#X obj -30 273 list prepend \$0;
#X msg -30 294 \; \$1-\$2-\$3-in \$4;
#X obj -30 229 i;
#X obj -2 208 % 4;
#X obj -30 52 loadbang;
#X connect 9 0 10 0;
#X connect 9 0 12 0;
#X connect 10 0 9 1;
#X connect 10 0 13 0;
#X connect 11 0 9 0;
#X connect 12 0 21 0;
#X connect 13 0 14 0;
#X connect 14 0 9 1;
#X connect 15 0 16 0;
#X connect 15 0 18 0;
#X connect 16 0 15 1;
#X connect 16 0 19 0;
#X connect 17 0 15 0;
#X connect 18 0 22 0;
#X connect 19 0 20 0;
#X connect 20 0 15 1;
#X connect 21 0 23 0;
#X connect 22 0 21 0;
#X connect 22 1 21 1;
#X connect 23 0 24 0;
#X connect 24 0 27 0;
#X connect 25 0 41 0;
#X connect 28 0 37 0;
#X connect 29 0 35 0;
#X connect 30 0 36 0;
#X connect 31 0 32 0;
#X connect 32 0 33 0;
#X connect 33 0 34 0;
#X connect 35 0 40 0;
#X connect 36 0 57 0;
#X connect 37 0 29 0;
#X connect 37 1 30 0;
#X connect 37 2 58 0;
#X connect 38 0 29 0;
#X connect 39 0 30 0;
#X connect 40 0 38 0;
#X connect 40 0 31 0;
#X connect 41 0 42 0;
#X connect 41 1 45 0;
#X connect 41 2 43 1;
#X connect 41 2 46 1;
#X connect 42 0 44 0;
#X connect 43 0 49 0;
#X connect 44 0 43 0;
#X connect 45 0 47 0;
#X connect 46 0 48 0;
#X connect 47 0 46 0;
#X connect 48 0 26 0;
#X connect 49 0 26 0;
#X connect 57 0 39 0;
#X connect 57 0 31 1;
#X connect 58 0 35 1;
#X connect 58 1 36 1;
#X connect 59 0 60 0;
#X connect 59 0 61 0;
#X connect 60 0 59 1;
#X connect 61 0 67 0;
#X connect 62 0 63 0;
#X connect 63 0 59 0;
#X connect 64 0 59 1;
#X connect 65 0 62 0;
#X connect 65 1 64 0;
#X connect 66 0 71 0;
#X connect 67 0 66 0;
#X connect 67 1 72 0;
#X connect 67 2 68 2;
#X connect 68 0 69 0;
#X connect 69 0 70 0;
#X connect 71 0 68 0;
#X connect 72 0 68 1;
#X connect 73 0 65 0;
