#N canvas 433 115 450 300 10;
#X obj 64 7 abs;
#X obj 64 -18 inlet;
#X obj 64 79 outlet;
#X obj 64 28 + \$1;
#X obj 64 53 mod \$1;
#X connect 0 0 3 0;
#X connect 1 0 0 0;
#X connect 3 0 4 0;
#X connect 4 0 2 0;
